<svg width="20" height="20" viewBox="0 0 20 20" fill="none" xmlns="http://www.w3.org/2000/svg">
<path d="M9.09091 19.1818C4.07 19.1818 0 15.1118 0 10.0909C0 5.07 4.07 1 9.09091 1C10.5024 0.998942 11.8947 1.32707 13.1572 1.95831C14.4197 2.58956 15.5176 3.50653 16.3636 4.63637H13.9C12.8502 3.71069 11.5556 3.1076 10.1716 2.89946C8.7875 2.69131 7.37279 2.88696 6.09717 3.46292C4.82155 4.03889 3.73923 4.97069 2.98006 6.14654C2.2209 7.32238 1.81715 8.6923 1.81727 10.0919C1.81739 11.4915 2.22136 12.8614 2.98072 14.0371C3.74008 15.2128 4.82256 16.1445 6.09827 16.7202C7.37399 17.2959 8.78874 17.4914 10.1728 17.283C11.5568 17.0746 12.8513 16.4713 13.9009 15.5455H16.3645C15.5184 16.6754 14.4204 17.5925 13.1577 18.2237C11.8951 18.855 10.5026 19.183 9.09091 19.1818V19.1818ZM15.4545 13.7273V11H8.18182V9.18182H15.4545V6.45455L20 10.0909L15.4545 13.7273Z" fill="black"/>
</svg>
