<?xml version="1.0" encoding="UTF-8" standalone="no" ?>
<!DOCTYPE svg PUBLIC "-//W3C//DTD SVG 1.1//EN" "http://www.w3.org/Graphics/SVG/1.1/DTD/svg11.dtd">
<svg xmlns="http://www.w3.org/2000/svg" xmlns:xlink="http://www.w3.org/1999/xlink" version="1.1" width="1080" height="190" viewBox="0 0 1080 190" xml:space="preserve">
<desc>Created with Fabric.js 4.2.0</desc>
<defs>
</defs>
<rect x="0" y="0" width="100%" height="100%" fill="transparent"></rect>
<g transform="matrix(1 0 0 1 540 95)" id="480276f3-cc6f-4485-9cb0-71cb54201bb6"  >
<rect style="stroke: none; stroke-width: 1; stroke-dasharray: none; stroke-linecap: butt; stroke-dashoffset: 0; stroke-linejoin: miter; stroke-miterlimit: 4; fill: rgb(255,255,255); fill-opacity: 0; fill-rule: nonzero; opacity: 1;" vector-effect="non-scaling-stroke"  x="-540" y="-95" rx="0" ry="0" width="1080" height="190" />
</g>
<g transform="matrix(Infinity NaN NaN Infinity 0 0)" id="9f115a77-eb0f-404c-b29c-98d0f6cbcf4c"  >
</g>
<g transform="matrix(1.35 0 0 1.35 540 95)"  >
<g style="" vector-effect="non-scaling-stroke"   >
		<g transform="matrix(1.88 0 0 1.88 -139.35 -1.16)"  >
<path style="stroke: none; stroke-width: 1; stroke-dasharray: none; stroke-linecap: butt; stroke-dashoffset: 0; stroke-linejoin: miter; stroke-miterlimit: 10; fill: rgb(56,116,152); fill-rule: nonzero; opacity: 1;" vector-effect="non-scaling-stroke"  transform=" translate(-200.91, -234.38)" d="M 235.74687 203.55434 L 212.93335 203.55434 L 200.91001 250.41454 L 188.88667 203.55434 L 166.07315 203.55434 L 166.07315 265.2125 L 180.25453 265.2125 L 180.25453 218.35229999999999 L 192.27786999999998 265.2125 L 209.54215999999997 265.2125 L 221.56549999999996 218.35229999999999 L 221.56549999999996 265.2125 L 235.74687999999995 265.2125 z" stroke-linecap="round" />
</g>
		<g transform="matrix(1.88 0 0 1.88 7.98 -1.16)"  >
<path style="stroke: none; stroke-width: 1; stroke-dasharray: none; stroke-linecap: butt; stroke-dashoffset: 0; stroke-linejoin: miter; stroke-miterlimit: 10; fill: rgb(56,116,152); fill-rule: nonzero; opacity: 1;" vector-effect="non-scaling-stroke"  transform=" translate(-279.25, -234.38)" d="M 289.11972 203.55434 L 279.25440999999995 223.59324 L 269.3890999999999 203.55434 L 249.04190999999992 203.55434 L 271.2388499999999 240.24095 L 271.2388499999999 265.21251 L 287.2699699999999 265.21251 L 287.2699699999999 240.24095 L 309.46690999999987 203.55434 z" stroke-linecap="round" />
</g>
		<g transform="matrix(1.88 0 0 1.88 136.76 0)"  >
<path style="stroke: none; stroke-width: 1; stroke-dasharray: none; stroke-linecap: butt; stroke-dashoffset: 0; stroke-linejoin: miter; stroke-miterlimit: 10; fill: rgb(56,116,152); fill-rule: nonzero; opacity: 1;" vector-effect="non-scaling-stroke"  transform=" translate(-347.73, -235)" d="M 372.70507 203.55434 L 356.67395 203.55434 L 356.67395 243.63215 C 356.67395 250.10626 352.66616999999997 253.49746 347.73352 253.49746 C 342.80087 253.49746 338.79309 250.10626 338.79309 243.63215 L 338.79309 203.55434 L 322.76197 203.55434 L 322.76197 243.63215 C 322.76197 257.50524 332.31899000000004 266.44567 347.73353000000003 266.44567 C 363.14807 266.44567 372.70509000000004 257.50524 372.70509000000004 243.63215 z" stroke-linecap="round" />
</g>
		<g transform="matrix(1.88 0 0 1.88 274.24 -1.16)"  >
<path style="stroke: none; stroke-width: 1; stroke-dasharray: none; stroke-linecap: butt; stroke-dashoffset: 0; stroke-linejoin: miter; stroke-miterlimit: 10; fill: rgb(56,116,152); fill-rule: nonzero; opacity: 1;" vector-effect="non-scaling-stroke"  transform=" translate(-420.84, -234.38)" d="M 446.7334 203.55434 L 432.24373 203.55434 L 432.24373 245.54354999999998 L 413.74628 203.55433999999997 L 394.94054 203.55433999999997 L 394.94054 265.2125 L 409.43021 265.2125 L 409.43021 223.28494999999998 L 427.92766 265.2125 L 446.7334 265.2125 z" stroke-linecap="round" />
</g>
		<g transform="matrix(1.88 0 0 1.88 379.83 -1.16)"  >
<path style="stroke: none; stroke-width: 1; stroke-dasharray: none; stroke-linecap: butt; stroke-dashoffset: 0; stroke-linejoin: miter; stroke-miterlimit: 10; fill: rgb(56,116,152); fill-rule: nonzero; opacity: 1;" vector-effect="non-scaling-stroke"  transform=" translate(-476.98, -234.38)" d="M 485 203.55434 L 468.96888 203.55434 L 468.96888 265.2125 L 485 265.2125 z" stroke-linecap="round" />
</g>
		<g transform="matrix(1.88 0 0 1.88 -335.78 0)"  >
<path style="stroke: none; stroke-width: 1; stroke-dasharray: none; stroke-linecap: butt; stroke-dashoffset: 0; stroke-linejoin: miter; stroke-miterlimit: 10; fill: rgb(56,116,152); fill-rule: evenodd; opacity: 1;" vector-effect="non-scaling-stroke"  transform=" translate(-96.45, -235)" d="M 109.54802 203.55434 L 75.48188999999999 203.55434 C 69.70244 203.55434 65 208.25678 65 214.03623 L 65 255.96377999999999 C 65 261.74323 69.70244 266.44567 75.48188999999999 266.44567 L 109.54802 266.44567 C 110.99516999999999 266.44567 112.16848999999999 265.27235 112.16848999999999 263.8252 L 112.16848999999999 221.89765 C 112.16848999999999 220.4505 110.99516999999999 219.27718 109.54802 219.27718 L 75.48188999999999 219.27718 C 72.59217 219.27718 70.24095 216.92595999999998 70.24095 214.03624 C 70.24095 211.14651999999998 72.59217 208.7953 75.48188999999999 208.7953 L 109.54802 208.7953 C 110.99516999999999 208.7953 112.16848999999999 207.62198 112.16848999999999 206.17483 C 112.16848999999999 204.72768 110.99516999999999 203.55435999999997 109.54802 203.55435999999997 z M 121.34014 203.55434 C 117.72782000000001 203.55434 114.78896 206.4932 114.78896 210.10551999999998 L 114.78896 255.96377999999999 C 114.78896 256.37061 114.88395 256.77153999999996 115.06542 257.13579 L 118.99613000000001 264.99721 C 119.44030000000001 265.8849 120.34764000000001 266.44568 121.34014 266.44568 C 122.33264000000001 266.44568 123.23998 265.88489999999996 123.68415 264.99721 L 127.61486000000001 257.13579 C 127.79633000000001 256.77155 127.89132000000001 256.37061 127.89132000000001 255.96377999999999 L 127.89132000000001 210.10551999999998 C 127.89132000000001 206.49319999999997 124.95246 203.55434 121.34014 203.55434 z M 121.34014 208.79528 C 122.06274 208.79528 122.65038 209.38291999999998 122.65038 210.10551999999998 L 122.65038 214.03623 L 120.02991 214.03623 L 120.02991 210.10551999999998 C 120.02991 209.38291999999998 120.61755 208.79528 121.34015 208.79528 z M 109.54802 211.41576 L 75.48188999999999 211.41576 C 74.03474 211.41576 72.86142 212.58908 72.86142 214.03623000000002 C 72.86142 215.48338 74.03474 216.65670000000003 75.48188999999999 216.65670000000003 L 109.54802 216.65670000000003 C 110.99516999999999 216.65670000000003 112.16848999999999 215.48338000000004 112.16848999999999 214.03623000000002 C 112.16848999999999 212.58908000000002 110.99516999999999 211.41576 109.54802 211.41576 z M 121.34014 257.96582 L 120.02990000000001 255.34535 L 120.02990000000001 219.27718 L 122.65037000000001 219.27718 L 122.65037000000001 255.34535 z M 75.48188 224.51812 L 106.92754000000001 224.51812 L 106.92754000000001 261.20473000000004 L 75.48188 261.20473000000004 C 72.59216 261.20473000000004 70.24094000000001 258.85351 70.24094000000001 255.96379000000005 L 70.24094000000001 223.09980000000004 C 71.7844 223.99600000000004 73.57156 224.51813000000004 75.48188 224.51813000000004 z M 78.10236 245.48189 L 99.06614 245.48189 C 100.51329 245.48189 101.68661 244.30857 101.68661 242.86141999999998 L 101.68661 232.37953 C 101.68661 230.93238 100.51329 229.75905999999998 99.06614 229.75905999999998 L 78.10236 229.75905999999998 C 76.65521000000001 229.75905999999998 75.48189 230.93237999999997 75.48189 232.37953 L 75.48189 242.86141999999998 C 75.48189 244.30856999999997 76.65521000000001 245.48189 78.10236 245.48189 z M 80.72283 235 L 96.44566 235 L 96.44566 240.24094 L 80.72283 240.24094 z M 78.10236 253.3433 L 99.06614 253.3433 C 100.51329 253.3433 101.68661 252.16998 101.68661 250.72283 C 101.68661 249.27568 100.51329 248.10235999999998 99.06614 248.10235999999998 L 78.10236 248.10235999999998 C 76.65521000000001 248.10235999999998 75.48189 249.27567999999997 75.48189 250.72283 C 75.48189 252.16997999999998 76.65521000000001 253.3433 78.10236 253.3433 z" stroke-linecap="round" />
</g>
		<g transform="matrix(1.88 0 0 1.88 -245.19 0)"  >
<path style="stroke: none; stroke-width: 1; stroke-dasharray: none; stroke-linecap: butt; stroke-dashoffset: 0; stroke-linejoin: miter; stroke-miterlimit: 10; fill: rgb(56,116,152); fill-rule: nonzero; opacity: 1;" vector-effect="non-scaling-stroke"  transform=" translate(-144.61, -235)" d="M 143.16405 266.44566 L 143.16405 203.55432999999996 L 146.06339 203.55432999999996 L 146.06339 266.44566 z" stroke-linecap="round" />
</g>
</g>
</g>
</svg>